<svg width="25" height="23" fill="none" xmlns="http://www.w3.org/2000/svg"><path d="M18.002 6.114a.352.352 0 01-.352-.351 5.15 5.15 0 00-10.298 0 .352.352 0 01-.704 0 5.853 5.853 0 0111.705 0 .352.352 0 01-.351.351z" fill="#674D40"/><path d="M19.028 14.074a.352.352 0 01-.004-.703 5.114 5.114 0 005.084-5.048 5.108 5.108 0 00-5.146-5.058 5.27 5.27 0 00-1.533.227.352.352 0 01-.206-.672 5.93 5.93 0 011.739-.258 5.812 5.812 0 015.849 5.761 5.82 5.82 0 01-5.778 5.751h-.005zm-13.056 0h-.005A5.82 5.82 0 01.19 8.324a5.813 5.813 0 015.85-5.762 5.915 5.915 0 011.738.258.352.352 0 11-.206.672 5.224 5.224 0 00-1.532-.227A5.108 5.108 0 00.893 8.323a5.114 5.114 0 005.083 5.048.351.351 0 11-.004.703z" fill="#674D40"/><path d="M19.028 22.825H5.972a.352.352 0 01-.352-.352v-8.75a.352.352 0 11.703 0v8.398h12.354v-8.398a.351.351 0 11.703 0v8.75a.352.352 0 01-.352.352z" fill="#674D40"/><path d="M21.477 19.416H8.42a.352.352 0 110-.703h13.057a.352.352 0 010 .703z" fill="#674D40"/></svg>