<svg width="25" height="25" fill="none" xmlns="http://www.w3.org/2000/svg"><path d="M12.5 0C5.607 0 0 5.607 0 12.5 0 19.392 5.607 25 12.5 25 19.392 25 25 19.392 25 12.5 25 5.607 19.392 0 12.5 0zm0 24.167C6.067 24.167.833 18.933.833 12.5S6.067.833 12.5.833 24.167 6.067 24.167 12.5 18.933 24.167 12.5 24.167z" fill="#674D40"/><path d="M12.917 10.842V6.616a.417.417 0 10-.834 0v4.226a1.665 1.665 0 00-1.19 1.191H7.917a.417.417 0 100 .833h2.976c.186.717.833 1.25 1.607 1.25.92 0 1.667-.747 1.667-1.666 0-.775-.534-1.421-1.25-1.608zm-.417 2.441a.834.834 0 11.002-1.668.834.834 0 01-.002 1.668zm0-9.167c.23 0 .417-.186.417-.416v-.417a.416.416 0 10-.834 0V3.7c0 .23.187.416.417.416zm0 16.667a.417.417 0 00-.417.417v.416a.417.417 0 10.834 0V21.2a.416.416 0 00-.417-.417zm9.167-8.75h-.417a.417.417 0 100 .833h.417a.417.417 0 100-.833zm-17.917 0h-.417a.416.416 0 100 .833h.417a.417.417 0 100-.833zm14.937-6.36l-.295.295a.416.416 0 10.59.589l.294-.295a.416.416 0 10-.589-.589zM6.018 18.342l-.294.295a.416.416 0 10.589.589l.295-.295a.416.416 0 10-.59-.589zm12.964 0a.416.416 0 10-.59.59l.295.294a.415.415 0 00.59 0 .416.416 0 000-.59l-.295-.294zM6.313 5.673a.416.416 0 10-.59.59l.295.294a.416.416 0 00.59 0 .416.416 0 000-.59l-.295-.294z" fill="#674D40"/></svg>