<svg width="26" height="24" fill="none" xmlns="http://www.w3.org/2000/svg"><path d="M8.885 0A5.013 5.013 0 003.88 5.005a5.013 5.013 0 005.005 5.006 5.013 5.013 0 005.006-5.006A5.013 5.013 0 008.885 0zm0 9.172A4.175 4.175 0 014.715 5 4.179 4.179 0 018.884.83 4.175 4.175 0 0113.056 5a4.179 4.179 0 01-4.17 4.172zm10.252-7.094a3.76 3.76 0 00-3.757 3.757 3.76 3.76 0 003.757 3.756 3.76 3.76 0 003.756-3.756 3.76 3.76 0 00-3.756-3.757zm0 6.684a2.925 2.925 0 01-2.923-2.922 2.925 2.925 0 012.923-2.923 2.925 2.925 0 012.922 2.923 2.925 2.925 0 01-2.922 2.922z" fill="#674D40"/><path d="M25.857 15.098c-.379-2.282-1.797-4.207-4.212-5.215 0 0-1.07.809-2.508.783-1.572-.03-2.508-.783-2.508-.783s-1.167.435-2.109 1.341c-.87-.773-2.339-1.402-2.339-1.402s-1.346 1.023-3.3 1.008c-2.053-.015-3.292-1.008-3.292-1.008s-4.437 1.525-5.374 6.7c0 0-1.003 2.743 1.32 6.842H16.24s1.044-1.817 1.228-2.922h7.314c1.796-2.723 1.075-5.344 1.075-5.344zM15.723 22.53H2.053c-1.786-3.393-1.014-5.87-1.014-5.87a7.928 7.928 0 014.489-5.896 6.709 6.709 0 006.72 0 7.928 7.928 0 014.488 5.896c-.005 0 .737 3.05-1.013 5.87zm8.573-2.922h-6.659c.256-1.474-.082-3.087-.082-3.087a8.745 8.745 0 00-2.42-4.734c.43-.389.905-.711 1.427-.962 1.572.9 3.573.9 5.144 0a5.966 5.966 0 013.327 4.412s.609 2.067-.737 4.37z" fill="#674D40"/></svg>